<svg width="34" height="31" viewBox="0 0 34 31" fill="none" xmlns="http://www.w3.org/2000/svg">
<g id="Group">
<g id="Group_2">
<path id="Vector" d="M24.204 8.73635C23.3817 8.00032 22.0947 8.00032 21.2724 8.73635L16.9821 12.5766L12.6919 8.73635C11.8696 8.00032 10.5826 8.00032 9.76027 8.73635C8.93798 9.47239 8.93798 10.6245 9.76027 11.3605L14.0505 15.2007L9.76027 19.0409C8.93798 19.7769 8.93798 20.929 9.76027 21.665C10.1535 22.017 10.6898 22.209 11.2261 22.209C11.7624 22.209 12.2987 22.017 12.6919 21.665L16.9821 17.8248L21.2724 21.665C21.6656 22.017 22.2019 22.209 22.7382 22.209C23.2745 22.209 23.8107 22.017 24.204 21.665C25.0263 20.929 25.0263 19.7769 24.204 19.0409L19.9138 15.2007L24.204 11.3605C24.9906 10.6245 24.9906 9.47239 24.204 8.73635Z" fill="#9E270A"/>
<path id="Vector_2" d="M23.9537 0H10.0105C4.50473 0 0 4.00021 0 8.96046V21.4731C0 26.4014 4.46898 30.4336 10.0105 30.4336H23.9895C29.4953 30.4336 34 26.4334 34 21.4731V8.96046C33.9642 4.00021 29.4953 0 23.9537 0ZM29.817 21.4411C29.817 24.3533 27.2072 26.6894 23.9537 26.6894H10.0105C6.7571 26.6894 4.14721 24.3533 4.14721 21.4411V8.96046C4.14721 6.04831 6.7571 3.71219 10.0105 3.71219H23.9895C27.2429 3.71219 29.8528 6.04831 29.8528 8.96046V21.4411H29.817Z" fill="#9E270A"/>
</g>
</g>
</svg>
