<svg width="106" height="146" viewBox="0 0 106 146" fill="none" xmlns="http://www.w3.org/2000/svg">
<g id="Group">
<path id="Vector" fill-rule="evenodd" clip-rule="evenodd" d="M93.1515 74.3377C95.4459 92.6926 96.8225 103.247 106 119.766C90.3983 138.58 77.0909 145.463 53.2294 145.463C28.9091 145.463 16.0606 138.58 0 119.766C9.17749 103.247 10.5541 92.6926 12.8485 74.3377C15.1429 54.6061 25.2381 45.8875 39.9221 42.6753C36.2511 37.1688 32.5801 31.6623 24.7792 26.1558C26.6147 25.697 28.4502 25.2381 30.7446 24.7792C32.1212 27.0736 33.9567 28.9091 35.7922 30.7446C41.7576 34.8745 44.5108 40.381 46.8052 46.3463C30.7446 47.7229 19.2727 55.0649 16.9784 74.7965C15.1429 89.9394 14.2251 102.788 5.04762 119.307C18.8139 135.368 33.039 140.874 53.2294 140.874C72.961 140.874 87.645 135.368 100.952 119.307C92.2338 102.788 90.8571 89.9394 89.0216 74.7965C86.7273 54.6061 75.2554 47.2641 58.7359 45.8875C60.1126 39.0043 60.5714 30.7446 57.8182 25.2381C56.9004 22.9437 55.5238 20.6494 53.6883 18.8139C53.2294 18.8139 53.2294 18.355 52.7706 17.8961C52.7706 15.1429 52.3117 11.9307 51.3939 8.71862C56.9004 11.4719 59.6537 15.1429 60.5714 18.8139C61.9481 16.9784 63.3247 15.1429 64.7013 13.3074C71.1255 22.4848 68.3723 32.5801 64.2424 42.2165C79.8442 44.9697 90.8571 53.6883 93.1515 74.3377ZM27.5325 0C26.6147 11.9307 30.2857 22.4848 37.6277 28.4502C46.8052 35.3333 49.0996 43.5931 52.3117 55.0649C55.5238 49.0996 59.1948 34.8745 55.0649 26.6147C50.4762 16.0606 39.4632 15.6017 27.5325 0ZM53.2294 118.848C48.1818 115.636 43.1342 102.329 43.1342 96.3636C35.7922 96.3636 29.8268 97.2814 23.8615 91.316C16.0606 84.4329 16.0606 72.5022 23.8615 65.1602C31.2035 58.2771 43.5931 58.2771 50.9351 65.1602C51.8528 66.0779 52.3117 66.9957 53.2294 67.9134C53.6883 66.9957 54.6061 66.0779 55.0649 65.1602C62.8658 58.2771 74.7965 58.2771 82.5974 65.1602C89.9394 72.5022 89.9394 84.4329 82.5974 91.316C76.1732 97.2814 70.2078 96.8225 62.4069 96.3636C63.3247 102.329 57.8182 115.636 53.2294 118.848ZM35.3333 72.5022C32.1212 72.5022 29.8268 75.2554 29.8268 78.4675C29.8268 81.6797 32.1212 83.974 35.3333 83.974C38.5455 83.974 41.2987 81.6797 41.2987 78.4675C41.2987 75.2554 38.5455 72.5022 35.3333 72.5022ZM70.6667 72.5022C73.8788 72.5022 76.632 75.2554 76.632 78.4675C76.632 81.6797 73.8788 83.974 70.6667 83.974C67.4545 83.974 65.1602 81.6797 65.1602 78.4675C65.1602 75.2554 67.4545 72.5022 70.6667 72.5022ZM51.3939 86.2684C52.3117 84.8918 53.6883 84.8918 54.6061 86.2684C55.5238 87.1862 56.4416 88.1039 57.3593 89.0217C63.7836 94.987 73.8788 94.987 80.303 89.0217C86.7273 83.0563 86.7273 73.4199 80.303 67.4546C73.8788 61.4892 63.7836 61.4892 57.3593 67.4546C56.4416 68.3723 55.5238 69.7489 54.6061 70.6667C53.6883 71.5844 52.3117 71.5844 51.3939 70.6667C50.4762 69.7489 50.0173 68.3723 49.0996 67.4546C42.6753 61.4892 32.1212 61.4892 25.697 67.4546C19.7316 73.4199 19.7316 83.0563 25.697 89.0217C32.1212 94.987 42.6753 94.987 49.0996 89.0217C50.0173 88.1039 50.4762 87.1862 51.3939 86.2684ZM72.0433 74.3377C73.4199 74.3377 74.7965 75.7143 74.7965 77.0909C74.7965 78.4675 73.4199 79.3853 72.0433 79.3853C70.6667 79.3853 69.7489 78.4675 69.7489 77.0909C69.7489 75.7143 70.6667 74.3377 72.0433 74.3377ZM33.9567 74.3377C32.5801 74.3377 31.2035 75.7143 31.2035 77.0909C31.2035 78.4675 32.5801 79.3853 33.9567 79.3853C35.3333 79.3853 36.2511 78.4675 36.2511 77.0909C36.2511 75.7143 35.3333 74.3377 33.9567 74.3377Z" fill="black"/>
</g>
</svg>
