<svg width="45" height="46" viewBox="0 0 45 46" fill="none" xmlns="http://www.w3.org/2000/svg">
<path id="Vector" d="M43.9012 10.364C43.0771 6.04995 40.0555 2.65483 36.1848 1.68479C33.0633 0.918979 28.1687 0 22.5 0C16.8313 0 11.9367 0.918979 8.8152 1.68479C4.96948 2.6293 1.94784 6.04995 1.09878 10.364C0.374584 14.1676 0 18.4051 0 23C0 27.5949 0.374584 31.8324 1.09878 35.636C1.92286 39.9501 4.94451 43.3452 8.8152 44.3152C11.9367 45.081 16.8313 46 22.5 46C28.1687 46 33.0633 45.081 36.1848 44.3152C40.0305 43.3707 43.0522 39.9501 43.9012 35.636C44.6254 31.8324 45 27.5949 45 23C45 18.4051 44.6254 14.1676 43.9012 10.364ZM39.0067 34.6404C38.5572 37.0144 36.9839 38.8524 35.0361 39.3374C32.1892 40.0266 27.6942 40.869 22.525 40.869C17.3557 40.869 12.8607 40.0266 10.0139 39.3374C8.06604 38.8524 6.49279 37.0144 6.04328 34.6659C5.36903 31.1942 5.04439 27.263 5.04439 23.0255C5.04439 18.788 5.36903 14.8568 6.04328 11.3851C6.49279 9.0111 8.06604 7.17314 10.0139 6.68812C12.8607 5.99889 17.3557 5.15649 22.525 5.15649C27.6942 5.15649 32.1892 5.99889 35.0361 6.68812C36.9839 7.17314 38.5572 9.0111 39.0067 11.3596C39.6809 14.8313 40.0055 18.7625 40.0055 23C40.0055 27.2375 39.6809 31.1687 39.0067 34.6404ZM32.5139 23C32.5139 24.404 31.3901 25.5527 30.0166 25.5527H25.0222V30.6582C25.0222 32.0622 23.8984 33.2109 22.525 33.2109C21.1515 33.2109 20.0277 32.0622 20.0277 30.6582V25.5527H15.0333C13.6598 25.5527 12.5361 24.404 12.5361 23C12.5361 21.596 13.6598 20.4473 15.0333 20.4473H20.0277V15.3418C20.0277 13.9378 21.1515 12.7891 22.525 12.7891C23.8984 12.7891 25.0222 13.9378 25.0222 15.3418V20.4473H30.0166C31.3901 20.4473 32.5139 21.596 32.5139 23Z" fill="#562C2C"/>
</svg>
